<?xml version="1.0" standalone="no"?>
<!DOCTYPE svg PUBLIC "-//W3C//DTD SVG 20010904//EN"
 "http://www.w3.org/TR/2001/REC-SVG-20010904/DTD/svg10.dtd">
<svg version="1.0" xmlns="http://www.w3.org/2000/svg"
 width="474.000000pt" height="474.000000pt" viewBox="0 0 474.000000 474.000000"
 preserveAspectRatio="xMidYMid meet">
<metadata>
Created by potrace 1.11, written by Peter Selinger 2001-2013
</metadata>
<g transform="translate(0.000000,474.000000) scale(0.100000,-0.100000)"
fill="#000000" stroke="none">
<path d="M3975 4401 c-51 -23 -105 -78 -105 -108 0 -12 9 -28 20 -35 11 -7 20
-18 20 -24 0 -7 28 -36 62 -66 81 -69 98 -86 98 -97 0 -5 26 -31 58 -58 31
-26 63 -57 71 -68 33 -46 99 -104 125 -111 23 -5 34 -1 63 27 46 45 59 74 62
136 3 75 -21 113 -164 256 -166 166 -218 190 -310 148z"/>
<path d="M3712 4174 c-23 -19 -42 -40 -42 -46 0 -22 456 -477 486 -484 17 -4
33 4 63 32 23 20 41 43 41 50 0 20 -468 484 -488 484 -10 0 -37 -16 -60 -36z"/>
<path d="M3549 4010 c-75 -64 -746 -741 -766 -774 -39 -60 -63 -135 -152 -465
-61 -230 -43 -245 209 -170 58 17 161 46 230 65 194 55 170 37 518 379 344
338 431 425 459 462 25 33 25 34 7 56 -40 47 -465 467 -473 467 -4 0 -19 -9
-32 -20z m-549 -926 c25 -3 54 -7 65 -9 11 -2 23 -4 26 -4 14 -2 22 -38 24
-102 1 -36 5 -74 9 -85 3 -11 0 -27 -6 -36 -11 -13 -120 -58 -183 -75 -58 -16
-104 5 -123 56 -9 25 19 144 55 233 16 39 17 40 52 33 20 -4 56 -9 81 -11z"/>
<path d="M3040 2985 c0 -8 5 -15 10 -15 6 0 10 7 10 15 0 8 -4 15 -10 15 -5 0
-10 -7 -10 -15z"/>
<path d="M3300 3875 c0 -8 5 -15 10 -15 6 0 10 7 10 15 0 8 -4 15 -10 15 -5 0
-10 -7 -10 -15z"/>
<path d="M990 3858 c-82 -21 -179 -79 -235 -140 -30 -34 -55 -65 -55 -70 0 -5
-16 -35 -36 -66 l-37 -57 1 -335 c3 -1649 3 -1593 20 -1630 18 -38 87 -155
106 -177 10 -13 26 -28 60 -58 19 -17 109 -57 157 -70 25 -7 87 -13 139 -14
52 -1 100 -7 106 -12 27 -22 32 -79 33 -404 1 -187 4 -341 6 -344 9 -9 115 51
175 99 80 64 387 280 397 280 4 0 13 7 22 15 26 26 145 115 153 115 5 0 16 8
26 18 10 9 39 29 63 45 24 15 71 45 104 67 33 22 76 47 95 55 19 9 46 22 60
29 53 29 165 33 900 36 206 1 402 6 434 11 167 27 334 195 352 355 10 89 17
1671 7 1688 -8 14 -31 -4 -139 -111 -72 -71 -139 -141 -149 -157 -17 -26 -18
-66 -21 -691 l-2 -662 -34 -49 c-21 -30 -45 -51 -63 -56 -17 -5 -255 -11 -530
-13 -541 -5 -780 -11 -835 -21 -51 -9 -90 -27 -147 -68 -28 -20 -54 -36 -58
-36 -4 0 -40 -24 -79 -53 -39 -30 -100 -75 -136 -100 -61 -44 -164 -122 -220
-167 -28 -22 -30 -23 -49 -11 -10 7 -14 56 -16 225 -1 119 -4 218 -6 220 -2 2
-115 6 -250 9 -141 2 -254 9 -265 15 -27 14 -58 51 -80 92 -17 33 -18 82 -19
895 0 473 2 870 3 881 2 12 21 41 41 63 33 36 45 42 87 46 57 5 780 13 1426
16 l447 1 25 32 c14 17 74 82 135 145 61 62 108 117 105 122 -7 12 -2178 9
-2224 -3z"/>
<path d="M1492 2419 c-34 -3 -66 -9 -70 -13 -9 -9 -7 -475 2 -484 4 -3 68 -6
144 -6 126 -1 141 1 184 23 72 37 84 103 35 194 l-21 37 21 58 c36 101 3 175
-84 188 -54 8 -148 9 -211 3z m192 -92 c35 -23 38 -92 5 -102 -27 -9 -129 -10
-156 -1 -21 7 -37 52 -28 81 3 8 7 21 9 28 6 20 137 15 170 -6z m-23 -197 c50
-14 76 -56 53 -88 -24 -35 -135 -60 -181 -39 -23 10 -34 39 -28 72 2 11 4 25
4 32 2 26 90 39 152 23z"/>
<path d="M1910 2416 c-8 -10 -11 -76 -10 -228 1 -117 2 -223 1 -235 -1 -30 16
-33 169 -39 l136 -5 2 34 c1 19 -3 39 -10 44 -7 6 -42 9 -78 8 -36 -1 -80 4
-97 11 l-33 13 0 195 c0 107 -3 197 -7 199 -26 14 -62 15 -73 3z"/>
<path d="M2458 2424 c-2 -1 -17 -4 -34 -7 -55 -8 -94 -37 -130 -93 -30 -47
-36 -66 -40 -127 -5 -91 10 -146 51 -194 52 -61 116 -88 205 -87 121 1 203 58
235 166 42 144 -20 291 -138 328 -36 11 -142 21 -149 14z m141 -103 c66 -47
88 -144 51 -228 -29 -68 -59 -94 -113 -100 -52 -6 -125 18 -155 51 -32 36 -51
110 -40 160 24 113 169 179 257 117z"/>
<path d="M2566 2241 c-3 -5 1 -11 9 -15 8 -3 15 -1 15 4 0 13 -18 22 -24 11z"/>
<path d="M3008 2413 c-76 -22 -112 -49 -144 -106 -25 -45 -29 -62 -29 -132 0
-95 18 -139 81 -201 49 -47 97 -64 186 -64 53 0 72 5 109 28 75 48 119 124
119 208 0 33 -22 60 -40 49 -14 -9 -151 -9 -177 -1 -16 5 -26 1 -37 -16 -35
-49 -14 -71 66 -67 51 3 84 -7 91 -26 8 -18 -39 -64 -86 -85 -43 -20 -97 -13
-149 18 -41 24 -78 104 -78 167 0 45 5 57 36 93 64 76 139 89 224 39 31 -17
44 -20 67 -12 55 20 34 64 -47 101 -46 21 -133 25 -192 7z"/>
</g>
</svg>
