<?xml version="1.0" standalone="no"?>
<!DOCTYPE svg PUBLIC "-//W3C//DTD SVG 20010904//EN"
 "http://www.w3.org/TR/2001/REC-SVG-20010904/DTD/svg10.dtd">
<svg version="1.0" xmlns="http://www.w3.org/2000/svg"
 width="474.000000pt" height="474.000000pt" viewBox="0 0 474.000000 474.000000"
 preserveAspectRatio="xMidYMid meet">
<metadata>
Created by potrace 1.11, written by Peter Selinger 2001-2013
</metadata>
<g transform="translate(0.000000,474.000000) scale(0.100000,-0.100000)"
fill="#000000" stroke="none">
<path d="M3959 4391 c-24 -15 -57 -43 -74 -60 l-29 -32 239 -240 240 -240 52
54 c62 64 80 115 62 179 -9 34 -37 69 -142 176 -73 74 -152 148 -176 163 -60
39 -112 39 -172 0z"/>
<path d="M3711 4172 l-53 -47 247 -248 c137 -136 253 -247 259 -247 7 0 33 21
59 48 l47 47 -248 248 c-136 136 -249 247 -252 247 -3 0 -29 -22 -59 -48z"/>
<path d="M3167 3628 c-321 -318 -408 -410 -415 -438 -11 -39 -102 -357 -133
-460 -34 -116 -34 -126 -6 -154 15 -14 33 -26 41 -26 8 0 88 22 178 49 90 27
215 64 278 81 63 18 134 44 157 58 23 15 216 200 429 413 l386 386 -247 246
c-136 136 -251 247 -255 247 -4 0 -190 -181 -413 -402z m-258 -522 c10 -9 52
-18 106 -23 l90 -8 11 -99 c8 -76 14 -102 29 -112 10 -8 17 -16 14 -18 -4 -4
-127 -42 -241 -74 l-58 -16 -30 29 c-32 30 -36 53 -21 101 6 16 24 75 41 132
17 56 34 102 37 102 4 0 14 -7 22 -14z"/>
<path d="M1335 3870 l-350 -5 -65 -31 c-114 -55 -194 -135 -256 -257 l-34 -67
2 -968 3 -967 44 -75 c113 -190 283 -281 505 -268 l61 3 3 -377 c1 -208 6
-378 10 -378 13 0 118 64 193 118 41 29 128 91 194 138 66 47 127 91 136 98
42 35 444 312 491 340 101 58 101 58 753 62 378 3 620 8 655 15 164 33 279
132 338 291 l27 73 3 853 c1 468 1 852 -1 852 -2 0 -74 -71 -160 -157 l-157
-158 0 -663 c0 -695 1 -691 -43 -744 -34 -42 -44 -43 -737 -48 -645 -5 -667
-6 -716 -26 -58 -24 -108 -57 -362 -238 -239 -170 -290 -206 -297 -206 -2 0
-6 105 -7 233 l-3 232 -255 5 c-289 6 -303 9 -340 85 -19 40 -20 67 -20 916 0
614 3 885 10 905 16 41 39 64 85 85 38 18 89 19 960 19 l920 0 153 153 154
154 -204 6 c-222 8 -1140 6 -1693 -3z"/>
<path d="M2430 2421 c-110 -36 -169 -114 -178 -233 -6 -86 15 -147 71 -205
123 -128 363 -79 422 86 45 128 -8 276 -119 333 -44 23 -153 33 -196 19z m167
-97 c56 -42 68 -69 68 -153 0 -70 -3 -81 -28 -114 -37 -48 -75 -67 -135 -67
-54 0 -100 25 -136 73 -17 23 -21 43 -21 106 0 70 3 81 29 115 16 21 43 44 60
52 42 20 129 13 163 -12z"/>
<path d="M3014 2420 c-108 -25 -183 -126 -184 -246 0 -112 49 -197 139 -240
85 -41 211 -26 283 34 38 32 75 112 79 172 l4 45 -137 3 -138 3 0 -41 0 -40
85 0 c76 0 85 -2 85 -19 0 -10 -9 -30 -21 -45 -63 -80 -191 -74 -257 12 -24
31 -27 44 -27 111 0 65 3 81 25 109 32 43 88 72 140 72 45 0 72 -11 108 -43
21 -20 24 -20 57 -4 19 9 35 21 35 26 0 18 -80 78 -119 89 -42 13 -109 14
-157 2z"/>
<path d="M1420 2170 l0 -250 154 0 c142 0 155 2 187 23 68 46 76 142 15 203
l-32 32 28 31 c15 17 31 43 34 58 11 41 -16 104 -55 130 -32 21 -44 23 -182
23 l-149 0 0 -250z m283 149 c22 -27 22 -51 -2 -80 -16 -20 -29 -23 -105 -27
l-86 -4 0 64 c0 36 3 68 8 72 4 4 43 5 87 2 66 -4 83 -9 98 -27z m-18 -189
c48 -18 57 -97 14 -121 -12 -6 -59 -13 -105 -16 l-84 -5 0 76 0 76 74 0 c41 0
86 -4 101 -10z"/>
<path d="M1900 2170 l0 -250 155 0 155 0 0 35 0 34 -107 3 -108 3 -3 213 -2
212 -45 0 -45 0 0 -250z"/>
</g>
</svg>
